<?xml version="1.0" encoding="UTF-8" standalone="no"?>
<!-- Created with Inkscape (http://www.inkscape.org/) -->

<svg
   width="651.84503mm"
   height="645.15277mm"
   viewBox="0 0 651.84503 645.15277"
   version="1.1"
   id="svg5"
   inkscape:version="1.1 (c68e22c387, 2021-05-23)"
   sodipodi:docname="market.svg"
   xmlns:inkscape="http://www.inkscape.org/namespaces/inkscape"
   xmlns:sodipodi="http://sodipodi.sourceforge.net/DTD/sodipodi-0.dtd"
   xmlns="http://www.w3.org/2000/svg"
   xmlns:svg="http://www.w3.org/2000/svg">
  <sodipodi:namedview
     id="namedview7"
     pagecolor="#ffffff"
     bordercolor="#666666"
     borderopacity="1.0"
     inkscape:pageshadow="2"
     inkscape:pageopacity="0.0"
     inkscape:pagecheckerboard="0"
     inkscape:document-units="mm"
     showgrid="false"
     width="1200mm"
     fit-margin-top="5"
     lock-margins="true"
     fit-margin-left="5"
     fit-margin-right="5"
     fit-margin-bottom="5"
     inkscape:zoom="0.39463853"
     inkscape:cx="1007.2509"
     inkscape:cy="1718.0279"
     inkscape:window-width="1920"
     inkscape:window-height="1047"
     inkscape:window-x="-9"
     inkscape:window-y="-9"
     inkscape:window-maximized="1"
     inkscape:current-layer="layer1">
    <inkscape:grid
       type="axonomgrid"
       id="grid824"
       units="px"
       spacingy="26.458333"
       originx="-109.62335"
       originy="-206.02086" />
  </sodipodi:namedview>
  <defs
     id="defs2" />
  <g
     inkscape:label="Layer 1"
     inkscape:groupmode="layer"
     id="layer1"
     transform="translate(-109.62335,-206.02085)">
    <path
       style="fill:#d54132;fill-opacity:1;stroke:#000000;stroke-width:0.264583px;stroke-linecap:butt;stroke-linejoin:miter;stroke-opacity:1"
       d="M 160.45053,383.15278 458.32718,211.17361 v 0 L 756.20382,383.15278 458.32718,555.13194 Z"
       id="path1655" />
    <path
       style="fill:#aa4400;fill-opacity:1;stroke:none;stroke-width:0.264583px;stroke-linecap:butt;stroke-linejoin:miter;stroke-opacity:1"
       d="m 229.1913,396.38195 114.56795,-66.14584 114.56794,-66.14583 114.56794,66.14583 114.56794,66.14584 -114.56794,66.14583 -114.56794,66.14583 -114.56794,-66.14583 z"
       id="path859" />
    <path
       style="fill:#7f2822;fill-opacity:1;stroke:none;stroke-width:0.264583px;stroke-linecap:butt;stroke-linejoin:miter;stroke-opacity:1"
       d="M 229.19129,396.38195 206.2777,383.15278 458.32718,237.63194 v 26.45834 z"
       id="path1354" />
    <path
       style="fill:#d35f5f;fill-opacity:1;stroke:none;stroke-width:0.264583px;stroke-linecap:butt;stroke-linejoin:miter;stroke-opacity:1"
       d="M 687.46306,396.38195 710.37664,383.15278 458.32718,237.63194 v 26.45834 l 229.13588,132.29167"
       id="path1422" />
    <path
       style="fill:#552200;fill-opacity:1;stroke:none;stroke-width:0.264583px;stroke-linecap:butt;stroke-linejoin:miter;stroke-opacity:1"
       d="m 458.32718,264.09028 22.91358,13.22917 -229.13588,132.29166 -22.91359,-13.22916 z"
       id="path1908" />
    <path
       style="fill:#ff6600;fill-opacity:1;stroke:none;stroke-width:0.264583px;stroke-linecap:butt;stroke-linejoin:miter;stroke-opacity:1"
       d="m 160.45053,383.15278 v 26.45833 l 297.87665,171.97917 v -26.45834 z"
       id="path10937" />
    <path
       style="fill:#7f2822;fill-opacity:1;stroke:none;stroke-width:0.264583px;stroke-linecap:butt;stroke-linejoin:miter;stroke-opacity:1"
       d="m 458.32718,555.13194 v 26.45834 L 756.20382,409.61111 v -26.45833 z"
       id="path20055" />
    <path
       id="path25115"
       style="fill:#f2f2f2;stroke:none;stroke-width:0.264583px;stroke-linecap:butt;stroke-linejoin:miter;stroke-opacity:1"
       d="m 183.36412,422.84028 v 79.375 52.91667 79.375 52.91666 l 160.39538,92.60417 22.91332,-13.22917 68.74052,39.6875 v 26.45833 l 22.91384,13.22917 V 581.59028 Z" />
    <path
       style="fill:#e6e6e6;stroke:none;stroke-width:0.264583px;stroke-linecap:butt;stroke-linejoin:miter;stroke-opacity:1"
       d="m 733.29024,422.84028 v 79.375 52.91666 79.375 52.91667 l -274.96308,158.75 V 581.59028 Z"
       id="path25509" />
    <path
       style="fill:#cccccc;stroke:none;stroke-width:0.264583px;stroke-linecap:butt;stroke-linejoin:miter;stroke-opacity:1"
       d="m 458.32718,608.04861 274.96306,-158.75 v -26.45833 l -274.96306,158.75 z"
       id="path25751" />
    <path
       style="fill:#80b3ff;stroke:none;stroke-width:0.264583px;stroke-linecap:butt;stroke-linejoin:miter;stroke-opacity:1"
       d="m 435.41357,806.48611 v -158.75 l -68.74076,-39.6875 v 158.75 l 68.74076,39.6875"
       id="path25984" />
    <path
       style="fill:#e6e6e6;fill-opacity:1;stroke:none;stroke-width:0.264583px;stroke-linecap:butt;stroke-linejoin:miter;stroke-opacity:1"
       d="m 366.67281,608.04861 -22.91357,-13.22917 v 185.20833 l 22.91357,-13.22916 v -158.75"
       id="path37166" />
    <path
       style="fill:#00aa88;stroke:none;stroke-width:0.264583px;stroke-linecap:butt;stroke-linejoin:miter;stroke-opacity:1"
       d="m 343.75924,780.02777 22.91357,-13.22916 v -26.45834 l -22.91357,13.22917 v 26.45833"
       id="path41680" />
    <path
       style="fill:#00d4aa;fill-opacity:1;stroke:none;stroke-width:0.264583px;stroke-linecap:butt;stroke-linejoin:miter;stroke-opacity:1"
       d="M 343.75924,753.56944 183.36411,660.96528 v 26.45833 l 160.39513,92.60416 z"
       id="path41901" />
    <path
       style="fill:#00d4aa;fill-opacity:1;stroke:none;stroke-width:0.264583px;stroke-linecap:butt;stroke-linejoin:miter;stroke-opacity:1"
       d="m 435.41357,806.48611 v 26.45833 l 22.91361,13.22917 v -26.45834 z"
       id="path49857" />
    <path
       style="fill:#008066;stroke:none;stroke-width:0.264583px;stroke-linecap:butt;stroke-linejoin:miter;stroke-opacity:1"
       d="M 458.32718,819.71527 733.29024,660.96528 v 26.45833 l -274.96306,158.75 z"
       id="path55157" />
    <path
       style="fill:#80e5ff;fill-opacity:1;stroke:none;stroke-width:0.264583px;stroke-linecap:butt;stroke-linejoin:miter;stroke-opacity:1"
       d="M 320.84566,581.59028 206.2777,515.44444 v 105.83334 l 114.56796,66.14583 z"
       id="path55371" />
    <path
       style="fill:#e6e6e6;fill-opacity:1;stroke:none;stroke-width:0.264583px;stroke-linecap:butt;stroke-linejoin:miter;stroke-opacity:1"
       d="m 206.2777,515.44444 22.91359,13.22917 v 79.375 l -22.91359,13.22917 z"
       id="path57701" />
    <path
       style="fill:#ffffff;stroke:none;stroke-width:0.264583px;stroke-linecap:butt;stroke-linejoin:miter;stroke-opacity:1"
       d="m 229.19129,608.04861 91.65437,52.91667 v 26.45833 L 206.2777,621.27778 Z"
       id="path67829" />
    <path
       style="fill:#80e5ff;fill-opacity:1;stroke:none;stroke-width:0.264583px;stroke-linecap:butt;stroke-linejoin:miter;stroke-opacity:1"
       d="M 481.24077,647.73611 595.80873,581.59027 V 687.42361 L 481.24077,753.56944 Z"
       id="path68010" />
    <path
       style="fill:#cccccc;fill-opacity:1;stroke:none;stroke-width:0.264583px;stroke-linecap:butt;stroke-linejoin:miter;stroke-opacity:1"
       d="m 595.80873,581.59027 -22.91359,13.22917 v 79.375 l 22.91359,13.22917 z"
       id="path68012" />
    <path
       style="fill:#ffffff;stroke:none;stroke-width:0.264583px;stroke-linecap:butt;stroke-linejoin:miter;stroke-opacity:1"
       d="m 572.89514,674.19444 -91.65437,52.91667 v 26.45833 l 114.56796,-66.14583 z"
       id="path68014" />
    <path
       style="fill:#80e5ff;fill-opacity:1;stroke:none;stroke-width:0.264583px;stroke-linecap:butt;stroke-linejoin:miter;stroke-opacity:1"
       d="M 618.72228,568.36111 733.29024,502.21527 V 608.04861 L 618.72228,674.19444 Z"
       id="path68021" />
    <path
       style="fill:#cccccc;fill-opacity:1;stroke:none;stroke-width:0.264583px;stroke-linecap:butt;stroke-linejoin:miter;stroke-opacity:1"
       d="m 733.29024,502.21527 -22.91359,13.22917 v 79.375 l 22.91359,13.22917 z"
       id="path68023" />
    <path
       style="fill:#ffffff;stroke:none;stroke-width:0.264583px;stroke-linecap:butt;stroke-linejoin:miter;stroke-opacity:1"
       d="m 710.37665,594.81944 -91.65437,52.91667 v 26.45833 l 114.56796,-66.14583 z"
       id="path68025" />
    <path
       style="fill:#5599ff;stroke:none;stroke-width:0.264583px;stroke-linecap:butt;stroke-linejoin:miter;stroke-opacity:1"
       d="m 366.67281,740.34027 v 26.45834 l 68.74076,39.6875 v -26.45834 z"
       id="path78258" />
    <path
       style="fill:#e48e85;fill-opacity:1;stroke:none;stroke-width:0.264583px;stroke-linecap:butt;stroke-linejoin:miter;stroke-opacity:1"
       d="m 160.45053,383.15278 -45.82718,79.375 297.87665,171.97917 45.82718,-79.375 z"
       id="path126361" />
    <path
       style="fill:#ffffff;stroke:none;stroke-width:0.264583px;stroke-linecap:butt;stroke-linejoin:miter;stroke-opacity:1"
       d="m 229.1913,528.67361 45.82717,-79.37499 22.91359,13.22916 -45.82717,79.375 z"
       id="path134964-78" />
    <path
       style="fill:#ffffff;stroke:none;stroke-width:0.264583px;stroke-linecap:butt;stroke-linejoin:miter;stroke-opacity:1"
       d="m 275.01848,555.13194 45.82717,-79.37499 22.91359,13.22916 -45.82717,79.375 z"
       id="path134964-9" />
    <path
       style="fill:#ffffff;stroke:none;stroke-width:0.264583px;stroke-linecap:butt;stroke-linejoin:miter;stroke-opacity:1"
       d="m 320.84565,581.59027 45.82717,-79.37499 22.91359,13.22916 -45.82717,79.375 z"
       id="path134964-3" />
    <path
       style="fill:#ffffff;stroke:none;stroke-width:0.264583px;stroke-linecap:butt;stroke-linejoin:miter;stroke-opacity:1"
       d="m 366.67282,608.04861 45.82717,-79.37499 22.91359,13.22916 -45.82717,79.375 z"
       id="path134964-5" />
    <path
       id="path126674"
       style="fill:#7f2822;fill-opacity:1;stroke:none;stroke-width:0.999999px;stroke-linecap:butt;stroke-linejoin:miter;stroke-opacity:1"
       d="m 1577.9531,1317.6113 -173.2051,300 v 100 l 173.2051,-100 v -100 z"
       transform="matrix(0.26458333,0,0,0.26458333,40.827177,206.5139)" />
    <path
       style="fill:#d54132;fill-opacity:1;stroke:none;stroke-width:0.264583px;stroke-linecap:butt;stroke-linejoin:miter;stroke-opacity:1"
       d="m 114.62335,462.52778 v 26.45833 L 412.5,660.96528 v -26.45834 z"
       id="path126808" />
    <path
       style="fill:#ffffff;stroke:none;stroke-width:0.264583px;stroke-linecap:butt;stroke-linejoin:miter;stroke-opacity:1"
       d="m 137.53694,475.75694 45.82717,-79.37499 22.91359,13.22916 -45.82717,79.375 z"
       id="path134964" />
    <path
       style="fill:#ffffff;stroke:none;stroke-width:0.264583px;stroke-linecap:butt;stroke-linejoin:miter;stroke-opacity:1"
       d="m 183.36412,502.21528 45.82717,-79.37499 22.91359,13.22916 -45.82717,79.375 z"
       id="path134964-7" />
    <path
       style="fill:#ececec;stroke:none;stroke-width:0.264583px;stroke-linecap:butt;stroke-linejoin:miter;stroke-opacity:1"
       d="m 137.53694,475.75694 v 26.45834 l 22.91359,13.22916 v -26.45833 z"
       id="path135219" />
    <path
       style="fill:#ececec;stroke:none;stroke-width:0.264583px;stroke-linecap:butt;stroke-linejoin:miter;stroke-opacity:1"
       d="m 183.36412,502.21527 v 26.45834 l 22.91359,13.22916 v -26.45833 z"
       id="path135219-0" />
    <path
       style="fill:#ececec;stroke:none;stroke-width:0.264583px;stroke-linecap:butt;stroke-linejoin:miter;stroke-opacity:1"
       d="m 229.1913,528.6736 v 26.45834 l 22.91359,13.22916 v -26.45833 z"
       id="path135219-02" />
    <path
       style="fill:#ececec;stroke:none;stroke-width:0.264583px;stroke-linecap:butt;stroke-linejoin:miter;stroke-opacity:1"
       d="m 275.01847,555.13194 v 26.45834 l 22.91359,13.22916 v -26.45833 z"
       id="path135219-9" />
    <path
       style="fill:#ececec;stroke:none;stroke-width:0.264583px;stroke-linecap:butt;stroke-linejoin:miter;stroke-opacity:1"
       d="m 320.84565,581.59026 v 26.45835 l 22.91359,13.22915 v -26.45832 z"
       id="path135219-4" />
    <path
       style="fill:#ececec;stroke:none;stroke-width:0.264583px;stroke-linecap:butt;stroke-linejoin:miter;stroke-opacity:1"
       d="m 366.67283,608.04859 v 26.45835 l 22.91359,13.22915 v -26.45832 z"
       id="path135219-97" />
    <path
       style="fill:#1a1a1a;fill-opacity:0.247978;stroke:none;stroke-width:0.264583px;stroke-linecap:butt;stroke-linejoin:miter;stroke-opacity:1"
       d="m 183.36411,528.67361 v 26.45833 L 412.5,687.42361 458.32718,660.96528 V 634.50694 L 412.5,660.96528 Z"
       id="path135540" />
  </g>
</svg>
