<svg id="Layer_1" enable-background="new 0 0 512.11 512.11" height="512" viewBox="0 0 512.11 512.11" width="512" xmlns="http://www.w3.org/2000/svg"><g><g><path d="m256.01 91.061c-8.284 0-15-6.716-15-15v-61.006c0-8.284 6.716-15 15-15s15 6.716 15 15v61.006c0 8.284-6.716 15-15 15z" fill="#e7dfdd"/></g><path d="m256.112.055v90.995c8.236-.056 14.897-6.745 14.897-14.995v-61.005c.001-8.25-6.66-14.939-14.897-14.995z" fill="#dad0cb"/><path d="m377.524 197.595v-48.792c0-6.555-5.314-11.868-11.868-11.868h-56.153l-16.342-26.152c0-6.555 11.028-11.868 4.473-11.868h-83.25c-6.555 0 6.741 4.993 6.741 11.548l-18.609 26.472h-56.153c-6.555 0-11.868 5.314-11.868 11.868v48.792h-73.685c-6.555 0-11.868 5.314-11.868 11.868v287.917h408.136v-287.917c0-6.555-5.314-11.868-11.868-11.868z" fill="#fff5f5"/><path d="m445.209 197.595h-67.685v-48.792c0-6.555-5.313-11.868-11.868-11.868h-56.153l-9.618-18.148c0-6.555 4.305-11.846-2.25-11.846h-41.522v390.44h200.965v-287.918c-.001-6.555-5.314-11.868-11.869-11.868z" fill="#eceae7"/><path d="m165.997 416.883h179.591v84.298h-179.591z" fill="#45f6ff"/><path d="m256.112 416.883h89.475v84.298h-89.475z" fill="#5ecbf1"/><path d="m345.946 400.826h-179.781c-8.284 0-15 6.716-15 15v81.229c0 8.284 6.716 7.171 15 7.171h179.781c8.284 0 15 1.113 15-7.171v-81.229c0-8.284-6.716-15-15-15zm-74.926 30v58.238h-29.928v-58.238zm-89.855 0h29.927v55.094h-29.927zm149.781 55.741h-29.926v-55.741h29.927v55.741z" fill="#006180"/><g><path d="m49.228 512.051c-8.284 0-15-6.716-15-15v-59.393c0-8.284 6.716-15 15-15s15 6.716 15 15v59.393c0 8.285-6.716 15-15 15z" fill="#9d5e4a"/></g><g><circle cx="166.825" cy="356.257" fill="#ff9d21" r="15"/><circle cx="225.841" cy="356.257" fill="#ff9d21" r="15"/><circle cx="284.857" cy="356.257" fill="#e20059" r="15"/><circle cx="343.873" cy="356.257" fill="#e20059" r="15"/><g><circle cx="166.825" cy="303.03" fill="#ff9d21" r="15"/><circle cx="225.841" cy="303.03" fill="#ff9d21" r="15"/><g fill="#e20059"><circle cx="284.857" cy="303.03" r="15"/><circle cx="343.873" cy="303.03" r="15"/></g></g><g><circle cx="225.841" cy="248.144" fill="#ff9d21" r="15"/><circle cx="284.857" cy="248.144" fill="#e20059" r="15"/></g><g><circle cx="225.841" cy="196.44" fill="#ff9d21" r="15"/><circle cx="284.857" cy="196.44" fill="#e20059" r="15"/></g></g><ellipse cx="49.228" cy="347.747" fill="#00d16c" rx="49.219" ry="103.371"/><g><g><path d="m457.263 512.051c-8.284 0-15-6.716-15-15v-59.393c0-8.284 6.716-15 15-15s15 6.716 15 15v59.393c0 8.285-6.715 15-15 15z" fill="#854737"/></g><ellipse cx="457.263" cy="347.747" fill="#00ad95" rx="49.219" ry="103.371"/></g><path d="m309.396 136.894v-48.27c0-6.555-5.314-11.868-11.868-11.868h-83.25c-6.555 0-11.868 5.314-11.868 11.868v48.27z" fill="#006180"/><path d="m297.528 76.755h-41.415v60.138h53.284v-48.27c-.001-6.554-5.314-11.868-11.869-11.868z" fill="#004960"/><path d="m345.946 400.826h-89.834v30h14.907v60.331h-14.907v13.069h89.834c8.284 0 15 1.113 15-7.171v-81.229c0-8.284-6.716-15-15-15zm-15 88.217h-29.926v-58.217h29.927v58.217z" fill="#003140"/><g><path d="m497.11 512.055h-482.11c-8.284 0-15-6.716-15-15s6.716-15 15-15h482.11c8.284 0 15 6.716 15 15s-6.715 15-15 15z" fill="#ace233"/></g><path d="m497.11 482.055h-240.997v30h240.997c8.284 0 15-6.716 15-15s-6.715-15-15-15z" fill="#00d16c"/></g></svg>