<svg id="Layer_1" enable-background="new 0 0 512 512" height="512" viewBox="0 0 512 512" width="512" xmlns="http://www.w3.org/2000/svg"><g><g><path d="m231.793 511.323c-4.22-.286-7.406-3.943-7.11-8.162.285-4.229 3.942-7.416 8.172-7.12 4.219.286 7.406 3.943 7.11 8.172-.276 4.035-3.647 7.13-7.631 7.13-.184 0-.357 0-.541-.02zm33.71-7.478c-.419-4.209 2.666-7.958 6.874-8.377 4.209-.409 7.958 2.667 8.377 6.875.409 4.208-2.667 7.957-6.875 8.376-.255.02-.511.041-.766.041-3.892.001-7.222-2.961-7.61-6.915zm-75.316 1.053c-4.117-1.002-6.64-5.148-5.638-9.255.991-4.117 5.138-6.64 9.254-5.639 4.107 1.001 6.63 5.138 5.628 9.255-1.134 3.67-3.613 5.621-7.436 5.853-.603-.071-1.206-.143-1.808-.214zm115.666-7.182c-1.114-4.086 1.287-8.305 5.363-9.418h.01c4.076-1.124 8.295 1.277 9.408 5.363.609 4.005-1.075 8.239-5.363 9.418-4.036.57-7.991-1.162-9.418-5.363zm38.746-12.881c-1.798-3.831-.143-8.387 3.688-10.185 3.831-1.798 8.387-.143 10.184 3.688 1.813 5.086-1.044 10.909-6.936 10.909-3.166-.115-5.478-1.586-6.936-4.412zm35.998-19.246c-2.421-3.473-1.563-8.243 1.92-10.654 3.473-2.421 8.243-1.563 10.664 1.92 4.435 8.301-6.619 16.911-12.584 8.734zm32.249-25.016c-2.955-3.644-2.918-7.257.113-10.838 3.024-2.963 7.866-2.911 10.828.112 2.963 3.014 2.922 7.866-.102 10.828-3.626 2.962-7.239 2.928-10.839-.102zm27.622-30.074c-3.272-2.367-4.082-7.434-1.716-10.705 2.482-3.422 7.273-4.188 10.706-1.706 3.422 2.482 4.188 7.273 1.706 10.695-3.073 4.037-6.572 3.05-10.696 1.716zm22.177-34.282c-3.62-1.781-5.266-6.64-3.483-10.256 1.868-3.8 6.465-5.363 10.255-3.493 3.801 1.879 5.353 6.466 3.484 10.266-2.32 4.3-6.184 4.442-10.256 3.483zm16.079-37.531c-3.864-1.148-6.319-5.652-5.168-9.52 1.195-4.055 5.465-6.374 9.52-5.179 4.056 1.205 6.374 5.465 5.169 9.52-1.521 4.269-5.472 5.769-9.521 5.179zm9.49-39.706c-4.014-.468-7.188-4.499-6.712-8.509.501-4.198 4.312-7.202 8.509-6.701 4.199.49 7.202 4.301 6.712 8.499-.858 4.36-4.047 7.013-8.509 6.711z" fill="#e8f3ff"/><path d="m4.271 309.073c-.776-4.147 1.951-8.162 6.109-8.938 4.157-.787 8.161 1.951 8.948 6.109.645 9.204-12.35 13.269-15.057 2.829zm-4.27-41.882c-.072-4.229 3.289-7.712 7.518-7.794 4.24-.072 7.723 3.299 7.795 7.528h.01c.071 4.229-3.3 7.723-7.529 7.795-.051 0-.092 0-.143 0-4.167-.001-7.58-3.341-7.651-7.529zm9.194-33.271c-3.99-.594-7.04-4.726-6.435-8.714.632-4.188 4.535-7.069 8.713-6.435 9.607 2.404 7.552 15.938-2.278 15.149zm8.213-39.982c-3.834-1.268-6.127-5.854-4.863-9.684 1.329-4.015 5.67-6.19 9.684-4.863 4.014 1.328 6.19 5.67 4.862 9.684-1.674 4.291-5.633 5.515-9.683 4.863zm14.883-38.021c-3.554-1.899-5.046-6.812-3.156-10.368 1.992-3.739 6.64-5.148 10.369-3.156 3.739 1.992 5.148 6.629 3.156 10.368-2.474 4.269-6.287 4.174-10.369 3.156zm21.094-34.967c-3.199-2.467-3.83-7.556-1.369-10.746 2.595-3.34 7.406-3.953 10.746-1.369 3.351 2.595 3.963 7.406 1.369 10.746-3.201 3.964-6.607 2.785-10.746 1.369zm26.661-30.921c-2.629-2.854-2.401-8.201.45-10.828 3.115-2.86 7.958-2.656 10.818.45 2.871 3.115 2.667 7.968-.449 10.828-1.726.674-3.453 1.348-5.179 2.023-1.88-.825-3.76-1.649-5.64-2.473zm31.453-26.018c-2.308-3.555-1.297-8.295 2.258-10.604 3.545-2.298 8.295-1.287 10.593 2.258 2.298 3.555 1.288 8.294-2.258 10.603-1.389.412-2.779.824-4.168 1.236-2.73-.071-4.871-1.236-6.425-3.493zm35.365-20.369c-1.675-3.892.123-8.397 4.004-10.062h.011c3.882-1.675 8.387.123 10.062 4.004 2.644 8.914-9.524 15.516-14.077 6.058zm38.307-14.107c-.991-4.107 1.542-8.244 5.659-9.235 4.117-.991 8.254 1.553 9.235 5.659 1.104 9.178-11.752 13.842-14.894 3.576zm40.135-7.406c-.275-4.219 2.912-7.866 7.141-8.152 4.219-.276 7.876 2.921 8.151 7.14.286 4.219-2.911 7.876-7.14 8.152-.164.01-.337.02-.511.02-3.994.001-7.365-3.105-7.641-7.16z" fill="#e8f3ff"/><g><g><path d="m345.724 295.06h39.791l12.494-29.409c9.542-2.76 18.599-6.708 27.009-11.681l30.039 12.123 28.136-28.294-12.685-31.786c4.062-7.707 7.342-15.911 9.73-24.502l31.762-13.645v-40.015l-31.76-13.645c-2.388-8.591-5.668-16.795-9.73-24.502l12.685-31.786-28.136-28.294-30.039 12.123c-8.41-4.973-17.467-8.921-27.009-11.681l-12.495-29.409h-39.791l-12.495 29.409c-9.542 2.76-18.599 6.708-27.009 11.681l-30.039-12.123-28.136 28.294 12.685 31.786c-4.062 7.707-7.342 15.911-9.73 24.502l-31.76 13.645v40.015l31.759 13.645c2.388 8.591 5.668 16.795 9.73 24.502l-12.685 31.786 28.136 28.294 30.039-12.123c8.41 4.973 17.467 8.921 27.009 11.681zm-44.557-147.202c0-35.796 28.857-64.815 64.453-64.815s64.453 29.019 64.453 64.815-28.857 64.815-64.453 64.815-64.453-29.018-64.453-64.815z" fill="#a6f5cf"/></g><path d="m512 167.866v-40.015l-31.76-13.645c-2.388-8.591-5.668-16.795-9.73-24.502l12.685-31.786-28.137-28.294-30.039 12.123c-8.41-4.973-17.466-8.921-27.009-11.681l-12.494-29.409h-39.791l-8.517 20.048c62.705 8.424 111.057 62.142 111.057 127.154s-48.353 118.729-111.057 127.154l8.517 20.048h39.791l12.494-29.409c9.542-2.76 18.599-6.708 27.009-11.681l30.039 12.123 28.137-28.294-12.685-31.786c4.062-7.706 7.342-15.911 9.73-24.502z" fill="#8aedbd"/><g><path d="m246.145 112.538c85.191 0 154.252 69.048 154.252 154.224 0 44.911-19.206 85.332-49.848 113.518v40.664l-36.781-15.539c-20.42 9.975-43.366 15.58-67.623 15.58-85.191 0-154.252-69.048-154.252-154.224.001-85.175 69.062-154.223 154.252-154.223z" fill="#fff5b5"/><path d="m246.145 112.538c-6.926 0-13.746.457-20.43 1.341 75.534 9.993 133.822 74.632 133.822 152.883 0 77.043-59.816 142.637-134.103 152.845 6.775.909 13.688 1.379 20.712 1.379 24.257 0 47.203-5.605 67.623-15.581l36.781 15.539v-40.664c30.641-28.186 49.848-68.607 49.848-113.518-.001-85.176-69.062-154.224-154.253-154.224z" fill="#ffef8f"/><g><g><path d="m291.864 359.026h-26.289c-4.232 0-7.661-3.43-7.661-7.661s3.43-7.661 7.661-7.661h26.289c15.535 0 28.174-12.639 28.174-28.175v-62.499c0-40.745-33.148-73.893-73.893-73.893s-73.893 33.148-73.893 73.893v39.519c0 4.231-3.43 7.661-7.661 7.661s-7.661-3.43-7.661-7.661v-39.519c0-49.194 40.022-89.216 89.216-89.216s89.216 40.022 89.216 89.216v62.499c-.001 23.984-19.513 43.497-43.498 43.497z" fill="#ffd54d"/><g fill="#7776d0"><path d="m308.431 307.904h5.552c17.267 0 31.265-13.998 31.265-31.265 0-17.267-13.998-31.265-31.265-31.265h-5.552c-4.435 0-8.031 3.595-8.031 8.031v46.469c.001 4.434 3.596 8.03 8.031 8.03z"/><path d="m183.86 245.373h-5.552c-17.267 0-31.265 13.998-31.265 31.265 0 17.267 13.998 31.265 31.265 31.265h5.552c4.435 0 8.031-3.595 8.031-8.031v-46.469c-.001-4.434-3.596-8.03-8.031-8.03z"/></g></g><path d="m260.857 366.076h14.711c8.125 0 14.711-6.586 14.711-14.711 0-8.125-6.586-14.711-14.711-14.711h-14.711c-8.125 0-14.711 6.586-14.711 14.711-.001 8.125 6.586 14.711 14.711 14.711z" fill="#7776d0"/></g></g></g><path d="m107.626 494.059 15.305 15.062 24.327-10.126.257-22.659c4.425-3.675 8.497-7.854 12.121-12.497l22.851-.249 10.084-24.457-15.973-16.431c.705-5.859.768-11.709.227-17.454l15.763-16.196-10.067-24.461-21.415-.243c-3.887-5.182-8.428-9.902-13.564-14.02l-.225-21.157-24.32-10.137-15.048 14.792c-6.528-.744-13.058-.638-19.451.259l-15.305-15.062-24.327 10.127-.257 22.659c-4.425 3.675-8.497 7.854-12.122 12.497l-22.85.249-10.084 24.456 15.973 16.431c-.705 5.859-.768 11.709-.227 17.454l-15.763 16.196 10.067 24.461 21.415.243c3.887 5.182 8.428 9.902 13.564 14.02l.225 21.158 24.32 10.137 15.048-14.792c6.527.743 13.058.638 19.451-.26zm-25.897-40.372c-21.756-9.068-32.081-34.155-23.06-56.034 9.021-21.878 33.971-32.263 55.727-23.195s32.081 34.155 23.06 56.034c-9.021 21.878-33.971 32.263-55.727 23.195z" fill="#d9ddff"/></g><g><path d="m176.826 405.249 15.763-16.196-10.067-24.461-21.415-.243c-3.887-5.182-8.427-9.902-13.564-14.02l-.225-21.158-24.32-10.137-15.048 14.792c-6.031-.687-12.065-.648-17.991.069 26.088 12.892 44.979 38.141 49.025 68.1 2.247 7.686 2.375 16.044.001 24.145-4.066 30.127-23.143 55.493-49.455 68.32 6.075.583 12.145.434 18.095-.401l15.305 15.062 24.328-10.126.257-22.659c4.425-3.675 8.497-7.854 12.122-12.496l22.851-.249 10.084-24.457-15.973-16.431c.704-5.859.767-11.708.227-17.454z" fill="#c7cdff"/></g></g></svg>