<svg id="Layer_1" enable-background="new 0 0 510 510" height="512" viewBox="0 0 510 510" width="512" xmlns="http://www.w3.org/2000/svg"><g><path d="m0 0v135l127.5 10 127.5-10 10-67.5-10-67.5c-7.193 0-247.807 0-255 0z" fill="#447895"/><path d="m510 0c-7.193 0-247.807 0-255 0v135l127.5 10 127.5-10c0-16.333 0-118.559 0-135z" fill="#37617a"/><path d="m59.978 52.478h30v30h-30z" fill="#f9eb97"/><path d="m119.978 52.478h30v30h-30z" fill="#bcf0ae"/><path d="m179.978 52.478h30v30h-30z" fill="#df666e"/><path d="m0 135v375h255l10-205.235-10-169.765z" fill="#f9f9f9"/><path d="m510 135h-255v375h255c0-10.573 0-364.427 0-375z" fill="#e7f1f9"/><path d="m390 225h30v210c-10.492 0-19.508 0-30 0v30h60c0-15 0-255 0-270-7.259 0-52.693 0-60 0z" fill="#a7cbf1"/><path d="m120 465h-60v-270h60v30h-30v210h30z" fill="#e7f1f9"/><path d="m150 195v30h105l10-15-10-15c-28.278 0-88.527 0-105 0z" fill="#df666e"/><path d="m360 195c-28.278 0-88.527 0-105 0v30h105c0-10.492 0-19.508 0-30z" fill="#cd4957"/><path d="m180 255v30h75l10-15-10-15c-20.194 0-63.236 0-75 0z" fill="#f1cb30"/><path d="m330 255c-20.194 0-63.236 0-75 0v30h75c0-10.492 0-19.508 0-30z" fill="#e48c21"/><path d="m150 315v30h105l10-15-10-15c-28.278 0-88.527 0-105 0z" fill="#bceaf9"/><path d="m360 315c-28.278 0-88.527 0-105 0v30h105c0-10.492 0-19.508 0-30z" fill="#88b4f9"/><path d="m180 375v30h75l10-15-10-15c-20.194 0-63.236 0-75 0z" fill="#bceaf9"/><path d="m330 375c-20.194 0-63.236 0-75 0v30h75c0-10.492 0-19.508 0-30z" fill="#88b4f9"/><path d="m150 435v30h105l10-15-10-15c-28.278 0-88.527 0-105 0z" fill="#bceaf9"/><path d="m360 435c-28.278 0-88.527 0-105 0v30h105c0-10.492 0-19.508 0-30z" fill="#88b4f9"/></g></svg>